<?xml version="1.0" encoding="UTF-8" standalone="no"?>
<!DOCTYPE svg PUBLIC "-//W3C//DTD SVG 1.1//EN"
 "http://www.w3.org/Graphics/SVG/1.1/DTD/svg11.dtd">
<!-- Generated by graphviz version 2.43.0 (0)
 -->
<!-- Title: %3 Pages: 1 -->
<svg width="335pt" height="238pt"
 viewBox="0.00 0.00 334.50 237.74" xmlns="http://www.w3.org/2000/svg" xmlns:xlink="http://www.w3.org/1999/xlink">
<g id="graph0" class="graph" transform="scale(1 1) rotate(0) translate(36 201.74)">
<title>%3</title>
<polygon fill="dimgray" stroke="transparent" points="-36,36 -36,-201.74 298.5,-201.74 298.5,36 -36,36"/>
<text text-anchor="middle" x="131.25" y="-150.54" font-family="Helvetica,sans-Serif" font-size="14.00">Sweep&#39;s Plan &amp; Progress</text>
<!-- start -->
<g id="node1" class="node">
<title>start</title>
</g>
<!-- 9f6f1d61&#45;5b3d&#45;4289&#45;a631&#45;0924c18610eb -->
<g id="node3" class="node">
<title>9f6f1d61&#45;5b3d&#45;4289&#45;a631&#45;0924c18610eb</title>
<ellipse fill="#0ee832" stroke="black" cx="130" cy="-99.87" rx="73.58" ry="26.74"/>
<text text-anchor="middle" x="130" y="-103.67" font-family="Helvetica,sans-Serif" font-size="14.00">✓ Modify</text>
<text text-anchor="middle" x="130" y="-88.67" font-family="Helvetica,sans-Serif" font-size="14.00">README.md</text>
</g>
<!-- start&#45;&gt;9f6f1d61&#45;5b3d&#45;4289&#45;a631&#45;0924c18610eb -->
<g id="edge2" class="edge">
<title>start&#45;&gt;9f6f1d61&#45;5b3d&#45;4289&#45;a631&#45;0924c18610eb</title>
<path fill="none" stroke="black" d="M4.8,-99.87C8.64,-99.87 25.74,-99.87 46.12,-99.87"/>
<polygon fill="black" stroke="black" points="46.35,-103.37 56.35,-99.87 46.35,-96.37 46.35,-103.37"/>
<text text-anchor="middle" x="30.48" y="-106.67" font-family="Helvetica,sans-Serif" font-size="14.00">Start</text>
</g>
<!-- end -->
<g id="node2" class="node">
<title>end</title>
</g>
<!-- 9f6f1d61&#45;5b3d&#45;4289&#45;a631&#45;0924c18610eb&#45;&gt;end -->
<g id="edge3" class="edge">
<title>9f6f1d61&#45;5b3d&#45;4289&#45;a631&#45;0924c18610eb&#45;&gt;end</title>
<path fill="none" stroke="black" d="M203.72,-99.87C222.34,-99.87 240.14,-99.87 251.06,-99.87"/>
<polygon fill="black" stroke="black" points="251.28,-103.37 261.28,-99.87 251.28,-96.37 251.28,-103.37"/>
<text text-anchor="middle" x="232.52" y="-106.67" font-family="Helvetica,sans-Serif" font-size="14.00">Finish</text>
</g>
<!-- 11b1ddb8&#45;1aaa&#45;448f&#45;88ff&#45;2d41f4fb41a9 -->
<g id="node4" class="node">
<title>11b1ddb8&#45;1aaa&#45;448f&#45;88ff&#45;2d41f4fb41a9</title>
<polygon fill="yellow" stroke="black" points="260,-36 0,-36 0,0 260,0 260,-36"/>
<text text-anchor="middle" x="130" y="-14.3" font-family="Helvetica,sans-Serif" font-size="14.00">⋯ Ran sandbox for `README.md`.</text>
</g>
<!-- 9f6f1d61&#45;5b3d&#45;4289&#45;a631&#45;0924c18610eb&#45;&gt;11b1ddb8&#45;1aaa&#45;448f&#45;88ff&#45;2d41f4fb41a9 -->
<g id="edge1" class="edge">
<title>9f6f1d61&#45;5b3d&#45;4289&#45;a631&#45;0924c18610eb&#45;&gt;11b1ddb8&#45;1aaa&#45;448f&#45;88ff&#45;2d41f4fb41a9</title>
<path fill="none" stroke="black" stroke-dasharray="5,2" d="M130,-72.72C130,-64.27 130,-54.89 130,-46.36"/>
<polygon fill="black" stroke="black" points="133.5,-46.15 130,-36.15 126.5,-46.15 133.5,-46.15"/>
</g>
</g>
</svg>
